<svg xmlns="http://www.w3.org/2000/svg" viewBox="0 0 24 24" fill="none" stroke-linecap="round" stroke-linejoin="round">
<circle cx="12" cy="12" r="3" stroke="#D0D0D0" stroke-width="1.6"/>
<path d="M19.4 15a1.65 1.65 0 00.33 1.82l.06.06a2 2 0 11-2.83 2.83l-.06-.06a1.65 1.65 0 00-1.82-.33 1.65 1.65 0 00-1 1.51V21a2 2 0 11-4 0v-.09a1.65 1.65 0 00-1-1.51 1.65 1.65 0 00-1.82.33l-.06.06a2 2 0 11-2.83-2.83l.06-.06A1.65 1.65 0 004.6 15a1.65 1.65 0 00-1.51-1H3a2 2 0 110-4h.09A1.65 1.65 0 004.6 9 1.65 1.65 0 004.27 7.18l-.06-.06a2 2 0 112.83-2.83l.06.06A1.65 1.65 0 009 4.6 1.65 1.65 0 0010 3.09V3a2 2 0 114 0v.09a1.65 1.65 0 001 1.51 1.65 1.65 0 001.82-.33l.06-.06a2 2 0 112.83 2.83l-.06.06a1.65 1.65 0 00-.33 1.82V9a1.65 1.65 0 001.51 1H21a2 2 0 110 4h-.09a1.65 1.65 0 00-1.51 1z" stroke="#D0D0D0" stroke-width="1.6"/>
</svg>
